<svg width="51" height="33" viewBox="0 0 51 33" fill="none" xmlns="http://www.w3.org/2000/svg">
<g id="Discover">
<rect id="Rectangle" x="0.703003" y="0.00585938" width="50" height="32" rx="3" fill="white"/>
<g id="Mask Group">
<mask id="mask0_2675_124" style="mask-type:alpha" maskUnits="userSpaceOnUse" x="0" y="0" width="51" height="33">
<rect id="Rectangle_2" x="0.703003" y="0.00585938" width="50" height="32" rx="3" fill="#EDEDF0"/>
</mask>
<g mask="url(#mask0_2675_124)">
<path id="Vector" d="M15.1561 32.0059H49.0624C49.9608 32.0059 50.703 31.2637 50.703 30.3652V18.8809C47.4608 20.9512 35.1952 28.0605 15.1561 32.0059Z" fill="#F58220"/>
</g>
</g>
<g id="Group">
<path id="Vector_2" d="M8.42474 12.9785H6.703V18.9917H8.41561C9.32628 18.9917 9.98387 18.7768 10.5611 18.2975C11.247 17.7299 11.6527 16.8742 11.6527 15.9892C11.6529 14.2149 10.3269 12.9785 8.42474 12.9785ZM9.79496 17.4957C9.42635 17.8285 8.94778 17.9736 8.18991 17.9736H7.87519V13.9974H8.18991C8.94778 13.9974 9.40762 14.1329 9.79496 14.4837C10.2006 14.8448 10.4446 15.4046 10.4446 15.9805C10.4446 16.5579 10.2006 17.1347 9.79496 17.4957Z" fill="#231F20"/>
<path id="Vector_3" d="M13.3655 12.9785H12.1925V18.9917H13.3655V12.9785Z" fill="#231F20"/>
<path id="Vector_4" d="M16.2335 15.2858C15.5297 15.0254 15.323 14.8536 15.323 14.5288C15.323 14.1499 15.6912 13.8623 16.1967 13.8623C16.5482 13.8623 16.8369 14.0066 17.1425 14.3492L17.7562 13.5456C17.2519 13.1044 16.6485 12.8789 15.9892 12.8789C14.9253 12.8789 14.1137 13.6178 14.1137 14.6019C14.1137 15.4303 14.4916 15.8545 15.5932 16.2508C16.0524 16.4127 16.2861 16.5206 16.404 16.5932C16.6384 16.7462 16.7557 16.963 16.7557 17.2154C16.7557 17.7026 16.3684 18.0635 15.8451 18.0635C15.2856 18.0635 14.835 17.7837 14.565 17.2616L13.8074 17.9913C14.3478 18.7845 14.9967 19.1361 15.8893 19.1361C17.1081 19.1361 17.9632 18.3257 17.9632 17.1617C17.963 16.2063 17.5678 15.7737 16.2335 15.2858Z" fill="#231F20"/>
<path id="Vector_5" d="M18.3331 15.9892C18.3331 17.7566 19.7211 19.1271 21.5071 19.1271C22.0121 19.1271 22.4445 19.0278 22.9777 18.7768V17.3961C22.5087 17.8654 22.0934 18.0546 21.5618 18.0546C20.3804 18.0546 19.5421 17.1981 19.5421 15.9804C19.5421 14.826 20.407 13.9152 21.5073 13.9152C22.0667 13.9152 22.4902 14.1148 22.9779 14.5918V13.2117C22.463 12.9504 22.0397 12.8423 21.535 12.8423C19.7576 12.8426 18.3331 14.2409 18.3331 15.9892Z" fill="#231F20"/>
<path id="Vector_6" d="M32.2774 17.0175L30.6738 12.9785H29.3925L31.9445 19.146H32.5756L35.1733 12.9785H33.9018L32.2774 17.0175Z" fill="#231F20"/>
<path id="Vector_7" d="M35.7036 18.9917H39.03V17.9738H36.8756V16.3507H38.9506V15.3321H36.8756V13.9974H39.03V12.9785H35.7036V18.9917Z" fill="#231F20"/>
<path id="Vector_8" d="M43.674 14.7537C43.674 13.6279 42.8985 12.9785 41.5459 12.9785H39.8068V18.9917H40.9783V16.5761H41.1313L42.7547 18.9918H44.1971L42.3042 16.4584C43.1875 16.2788 43.674 15.6745 43.674 14.7537ZM41.3209 15.7469H40.9784V13.9257H41.3395C42.07 13.9257 42.4671 14.2318 42.4671 14.8169C42.4671 15.4215 42.0701 15.7469 41.3209 15.7469Z" fill="#231F20"/>
<g id="MarkingBase 1">
<path id="Vector_9" d="M26.5594 19.2048C28.3261 19.2048 29.7583 17.7727 29.7583 16.006C29.7583 14.2393 28.3261 12.8071 26.5594 12.8071C24.7928 12.8071 23.3606 14.2393 23.3606 16.006C23.3606 17.7727 24.7928 19.2048 26.5594 19.2048Z" fill="url(#paint0_linear_2675_124)"/>
<path id="Vector_10" opacity="0.65" d="M26.5594 19.2048C28.3261 19.2048 29.7583 17.7727 29.7583 16.006C29.7583 14.2393 28.3261 12.8071 26.5594 12.8071C24.7928 12.8071 23.3606 14.2393 23.3606 16.006C23.3606 17.7727 24.7928 19.2048 26.5594 19.2048Z" fill="url(#paint1_linear_2675_124)"/>
</g>
<g id="Registered 1">
<path id="Vector_11" d="M44.4227 13.2046C44.4227 13.0991 44.3501 13.0415 44.2226 13.0415H44.0529V13.57H44.179V13.365L44.3269 13.57H44.4808L44.307 13.3521C44.3817 13.3321 44.4227 13.278 44.4227 13.2046ZM44.2004 13.2768H44.1791V13.1386H44.2017C44.2641 13.1386 44.2966 13.1611 44.2966 13.2066C44.2966 13.2532 44.2637 13.2768 44.2004 13.2768Z" fill="#231F20"/>
<path id="Vector_12" d="M44.2482 12.8442C43.9915 12.8442 43.7878 13.049 43.7878 13.3049C43.7878 13.5608 43.9939 13.7659 44.2482 13.7659C44.4982 13.7659 44.703 13.5585 44.703 13.3049C44.703 13.0525 44.4981 12.8442 44.2482 12.8442ZM44.2462 13.6834C44.0442 13.6834 43.879 13.5154 43.879 13.3056C43.879 13.0952 44.0421 12.9272 44.2462 12.9272C44.4472 12.9272 44.611 13.099 44.611 13.3056C44.611 13.5136 44.4474 13.6834 44.2462 13.6834Z" fill="#231F20"/>
</g>
</g>
</g>
<defs>
<linearGradient id="paint0_linear_2675_124" x1="28.1968" y1="18.5696" x2="25.9819" y2="15.1018" gradientUnits="userSpaceOnUse">
<stop stop-color="#F89F21"/>
<stop offset="0.2502" stop-color="#F79A23"/>
<stop offset="0.5331" stop-color="#F78E22"/>
<stop offset="0.6196" stop-color="#F68721"/>
<stop offset="0.7232" stop-color="#F48220"/>
<stop offset="1" stop-color="#F27623"/>
</linearGradient>
<linearGradient id="paint1_linear_2675_124" x1="27.8469" y1="18.5225" x2="24.6099" y2="12.1954" gradientUnits="userSpaceOnUse">
<stop stop-color="#F68721" stop-opacity="0"/>
<stop offset="0.3587" stop-color="#E27027" stop-opacity="0.2704"/>
<stop offset="0.703" stop-color="#D4612C" stop-opacity="0.5299"/>
<stop offset="0.9816" stop-color="#D15D2D" stop-opacity="0.74"/>
</linearGradient>
</defs>
</svg>
