<svg width="51" height="33" viewBox="0 0 51 33" fill="none" xmlns="http://www.w3.org/2000/svg">
<g clip-path="url(#clip0_1168_346)">
<rect x="0.0507812" y="0.661621" width="50" height="32" rx="3" fill="white"/>
<path d="M24.0221 17.4887V21.9119H22.6189V10.9885H26.3405C26.7847 10.9792 27.2264 11.058 27.64 11.2203C28.0536 11.3826 28.431 11.6253 28.7504 11.9342C29.0729 12.2243 29.3297 12.5802 29.5033 12.9778C29.6769 13.3754 29.7635 13.8056 29.757 14.2395C29.7663 14.6756 29.6811 15.1086 29.5073 15.5088C29.3336 15.9089 29.0754 16.2668 28.7504 16.5578C28.0996 17.1784 27.2963 17.4884 26.3405 17.4878H24.0221V17.4887ZM24.0221 12.3334V16.1465H26.3753C26.6333 16.1541 26.8901 16.1078 27.1291 16.0106C27.3682 15.9133 27.5844 15.7672 27.7637 15.5817C27.9422 15.4082 28.0841 15.2007 28.1809 14.9714C28.2778 14.7421 28.3277 14.4958 28.3277 14.2469C28.3277 13.998 28.2778 13.7516 28.1809 13.5224C28.0841 13.2931 27.9422 13.0856 27.7637 12.9121C27.5866 12.7226 27.3712 12.5729 27.1319 12.473C26.8925 12.3731 26.6346 12.3252 26.3753 12.3325H24.0221V12.3334Z" fill="#5F6368"/>
<path d="M32.9906 14.1943C34.0278 14.1943 34.8464 14.4715 35.4467 15.0258C36.0469 15.5801 36.3467 16.3401 36.3461 17.3058V21.9121H35.0039V20.8749H34.9429C34.3619 21.729 33.5891 22.1561 32.6245 22.1561C31.8012 22.1561 31.1124 21.9121 30.5581 21.424C30.292 21.2 30.0794 20.9194 29.9355 20.6028C29.7917 20.2861 29.7203 19.9414 29.7266 19.5937C29.7266 18.8203 30.0188 18.2053 30.6034 17.7486C31.1879 17.2919 31.9682 17.0629 32.9444 17.0618C33.7776 17.0618 34.4638 17.2143 35.003 17.5194V17.1986C35.0046 16.9616 34.9534 16.7271 34.8532 16.5123C34.7529 16.2975 34.6062 16.1077 34.4234 15.9566C34.0524 15.6219 33.5688 15.4392 33.069 15.445C32.2852 15.445 31.6649 15.7756 31.2082 16.4369L29.9724 15.6586C30.6522 14.6824 31.6583 14.1943 32.9906 14.1943ZM31.1751 19.6242C31.1742 19.8028 31.2159 19.979 31.2969 20.1382C31.3778 20.2974 31.4957 20.4349 31.6405 20.5393C31.9509 20.7835 32.3361 20.9128 32.7309 20.9054C33.323 20.9044 33.8906 20.6687 34.3093 20.25C34.7741 19.8124 35.0065 19.2991 35.0065 18.7099C34.569 18.3613 33.9589 18.187 33.1762 18.187C32.6062 18.187 32.1309 18.3244 31.7504 18.5992C31.366 18.8781 31.1751 19.2172 31.1751 19.6242Z" fill="#5F6368"/>
<path d="M44.0508 14.4385L39.3652 25.2067H37.9167L39.6554 21.4389L36.5745 14.4385H38.0997L40.3266 19.8073H40.3571L42.5229 14.4385H44.0508Z" fill="#5F6368"/>
<path d="M18.3517 16.5352C18.3522 16.1076 18.3161 15.6807 18.2436 15.2593H12.3257V17.6761H15.7152C15.6458 18.0621 15.499 18.4301 15.2836 18.7578C15.0682 19.0856 14.7887 19.3663 14.4619 19.5831V21.1519H16.4848C17.6693 20.0599 18.3517 18.4449 18.3517 16.5352Z" fill="#4285F4"/>
<path d="M12.3258 22.6675C14.0192 22.6675 15.4451 22.1115 16.4849 21.1527L14.462 19.5839C13.899 19.9657 13.1738 20.1836 12.3258 20.1836C10.689 20.1836 9.2997 19.0802 8.80291 17.5933H6.71899V19.21C7.24129 20.2493 8.04219 21.123 9.03225 21.7336C10.0223 22.3441 11.1626 22.6675 12.3258 22.6675Z" fill="#34A853"/>
<path d="M8.8029 17.5935C8.54026 16.8144 8.54026 15.9706 8.8029 15.1915V13.5747H6.71899C6.27961 14.449 6.05078 15.414 6.05078 16.3925C6.05078 17.371 6.27961 18.3359 6.71899 19.2103L8.8029 17.5935Z" fill="#FBBC04"/>
<path d="M12.3258 12.6011C13.2207 12.5865 14.0854 12.9246 14.733 13.5424L16.5241 11.7513C15.3884 10.6846 13.8838 10.0989 12.3258 10.1171C11.1626 10.1172 10.0223 10.4405 9.03225 11.051C8.04219 11.6616 7.24129 12.5353 6.71899 13.5746L8.80291 15.1914C9.2997 13.7045 10.689 12.6011 12.3258 12.6011Z" fill="#EA4335"/>
</g>
<defs>
<clipPath id="clip0_1168_346">
<rect width="50" height="32" fill="white" transform="translate(0.0507812 0.661621)"/>
</clipPath>
</defs>
</svg>
