<svg width="51" height="33" viewBox="0 0 51 33" fill="none" xmlns="http://www.w3.org/2000/svg">
<g id="Visa">
<rect id="Rectangle" x="0.783691" y="0.00585938" width="50" height="32" rx="3" fill="white"/>
<g id="Group">
<path id="polygon9" d="M23.2504 21.5409H20.1721L22.0975 10.5054H25.1756L23.2504 21.5409Z" fill="#00579F"/>
<path id="path11" d="M34.4092 10.7755C33.8021 10.5522 32.8391 10.3057 31.6483 10.3057C28.6084 10.3057 26.4677 11.8083 26.4546 13.9566C26.4294 15.5416 27.9873 16.422 29.1524 16.9505C30.3434 17.4905 30.7482 17.843 30.7482 18.3244C30.7361 19.0637 29.7859 19.4044 28.8996 19.4044C27.6706 19.4044 27.0121 19.2287 26.0114 18.8174L25.6061 18.6411L25.1753 21.1183C25.8973 21.4232 27.2274 21.6938 28.6084 21.7057C31.8383 21.7057 33.9411 20.2263 33.966 17.9369C33.9783 16.6807 33.1557 15.7181 31.3822 14.9315C30.3055 14.4266 29.6462 14.0861 29.6462 13.5695C29.6588 13.0998 30.2038 12.6187 31.4192 12.6187C32.4199 12.5952 33.1552 12.8182 33.7122 13.0413L33.9906 13.1585L34.4092 10.7755Z" fill="#00579F"/>
<path id="path13" d="M38.5006 17.6314C38.7541 16.9974 39.7296 14.5437 39.7296 14.5437C39.7168 14.5673 39.9826 13.8981 40.1346 13.4872L40.3497 14.4381C40.3497 14.4381 40.9327 17.0796 41.0592 17.6314C40.5782 17.6314 39.1086 17.6314 38.5006 17.6314ZM42.3004 10.5054H39.9193C39.1851 10.5054 38.6272 10.7048 38.3104 11.421L33.738 21.5407H36.968C36.968 21.5407 37.4997 20.1787 37.614 19.8853C37.9684 19.8853 41.1104 19.8853 41.5663 19.8853C41.6546 20.2728 41.9336 21.5407 41.9336 21.5407H44.7837L42.3004 10.5054Z" fill="#00579F"/>
<path id="path15" d="M17.6009 10.5054L14.5863 18.0305L14.2569 16.5043C13.6995 14.7433 11.9516 12.83 10.001 11.8786L12.7623 21.5292H16.0175L20.856 10.5054H17.6009Z" fill="#00579F"/>
<path id="path17" d="M11.787 10.5054H6.83436L6.78369 10.7283C10.6471 11.6441 13.2057 13.8516 14.2569 16.5048L13.1803 11.433C13.003 10.7282 12.4583 10.5286 11.787 10.5054Z" fill="#FAA61A"/>
</g>
</g>
</svg>
