<svg width="51" height="33" viewBox="0 0 51 33" fill="none" xmlns="http://www.w3.org/2000/svg">
<rect x="0.864502" y="0.00585938" width="50" height="32" rx="3" fill="white"/>
<path d="M30.2386 23.8688H21.4894V8.14502H30.2386V23.8688Z" fill="#6C6BBD"/>
<path d="M22.0499 16.0059C22.0499 12.8162 23.5433 9.97496 25.8689 8.14395C24.1683 6.80502 22.0219 6.00586 19.6893 6.00586C14.167 6.00586 9.69055 10.4829 9.69055 16.0059C9.69055 21.5288 14.167 26.0059 19.6893 26.0059C22.0219 26.0059 24.1683 25.2067 25.8689 23.8678C23.5433 22.0368 22.0499 19.1955 22.0499 16.0059Z" fill="#EB001B"/>
<path d="M42.0384 16.0059C42.0384 21.5288 37.562 26.0059 32.0397 26.0059C29.707 26.0059 27.5607 25.2067 25.8594 23.8678C28.1857 22.0368 29.6791 19.1955 29.6791 16.0059C29.6791 12.8162 28.1857 9.97496 25.8594 8.14395C27.5607 6.80502 29.707 6.00586 32.0397 6.00586C37.562 6.00586 42.0384 10.4829 42.0384 16.0059Z" fill="#0099DF"/>
<path d="M34.8798 14.2961C35.023 14.2961 35.2288 14.3235 35.386 14.3853L35.1669 15.055C35.0167 14.9932 34.8665 14.9729 34.7226 14.9729C34.2578 14.9729 34.0255 15.2733 34.0255 15.8131V17.6455H33.3143V14.3783H34.0184V14.7749C34.2031 14.4878 34.4699 14.2961 34.8798 14.2961ZM32.2526 15.0276H31.0908V16.504C31.0908 16.8318 31.2066 17.0509 31.5626 17.0509C31.7472 17.0509 31.9796 16.989 32.1908 16.8662L32.3958 17.4741C32.1705 17.6314 31.8153 17.7276 31.5078 17.7276C30.6667 17.7276 30.3734 17.2762 30.3734 16.5173V15.0276H29.7099V14.3783H30.3734V13.387H31.0908V14.3783H32.2526V15.0276ZM23.1544 15.7247C23.2303 15.253 23.5166 14.9314 24.0228 14.9314C24.4805 14.9314 24.7747 15.2185 24.8498 15.7247H23.1544ZM25.5884 16.0119C25.5813 14.9932 24.9523 14.2961 24.0361 14.2961C23.0793 14.2961 22.4096 14.9932 22.4096 16.0119C22.4096 17.0501 23.1067 17.7268 24.0846 17.7268C24.5768 17.7268 25.0274 17.604 25.4241 17.2691L25.0751 16.7426C24.8021 16.9617 24.4531 17.0845 24.1253 17.0845C23.6676 17.0845 23.2506 16.8725 23.1481 16.2849H25.5743C25.5813 16.1957 25.5884 16.1073 25.5884 16.0119ZM28.7116 15.2123C28.5137 15.0887 28.1107 14.9314 27.6937 14.9314C27.3041 14.9314 27.0717 15.0754 27.0717 15.3148C27.0717 15.5331 27.3174 15.5949 27.6249 15.6355L27.9597 15.6833C28.6709 15.7865 29.1012 16.087 29.1012 16.6612C29.1012 17.2832 28.5543 17.7276 27.6116 17.7276C27.078 17.7276 26.5859 17.5907 26.1963 17.3036L26.5311 16.7496C26.7705 16.9343 27.1265 17.0915 27.6186 17.0915C28.1037 17.0915 28.3634 16.9484 28.3634 16.6949C28.3634 16.511 28.1788 16.4077 27.7892 16.3538L27.4543 16.306C26.7228 16.2028 26.3261 15.8749 26.3261 15.3422C26.3261 14.6928 26.8597 14.2961 27.6867 14.2961C28.2062 14.2961 28.678 14.4127 29.0191 14.638L28.7116 15.2123ZM37.4781 14.9713C37.3318 14.9713 37.1964 14.9971 37.0705 15.048C36.9453 15.0996 36.8365 15.1716 36.745 15.2639C36.6535 15.3562 36.5815 15.4673 36.5291 15.5964C36.4766 15.7255 36.4508 15.8679 36.4508 16.0228C36.4508 16.1785 36.4766 16.3201 36.5291 16.4492C36.5815 16.5783 36.6535 16.6894 36.745 16.7817C36.8365 16.874 36.9453 16.946 37.0705 16.9977C37.1964 17.0493 37.3318 17.0743 37.4781 17.0743C37.6244 17.0743 37.7605 17.0493 37.8857 16.9977C38.0117 16.946 38.1212 16.874 38.2127 16.7817C38.3058 16.6894 38.3778 16.5783 38.431 16.4492C38.4834 16.3201 38.5092 16.1785 38.5092 16.0228C38.5092 15.8679 38.4834 15.7255 38.431 15.5964C38.3778 15.4673 38.3058 15.3562 38.2127 15.2639C38.1212 15.1716 38.0117 15.0996 37.8857 15.048C37.7605 14.9971 37.6244 14.9713 37.4781 14.9713ZM37.4781 14.2961C37.7316 14.2961 37.9663 14.3399 38.1822 14.4283C38.3981 14.516 38.5851 14.6372 38.7424 14.7914C38.9004 14.9455 39.0233 15.1278 39.1125 15.3375C39.2016 15.5479 39.2462 15.7764 39.2462 16.0228C39.2462 16.2693 39.2016 16.4977 39.1125 16.7082C39.0233 16.9178 38.9004 17.1009 38.7424 17.2551C38.5851 17.4092 38.3981 17.5297 38.1822 17.6181C37.9663 17.7057 37.7316 17.7495 37.4781 17.7495C37.2246 17.7495 36.9899 17.7057 36.7739 17.6181C36.558 17.5297 36.3726 17.4092 36.2161 17.2551C36.0596 17.1009 35.9368 16.9178 35.8476 16.7082C35.7584 16.4977 35.7138 16.2693 35.7138 16.0228C35.7138 15.7764 35.7584 15.5479 35.8476 15.3375C35.9368 15.1278 36.0596 14.9455 36.2161 14.7914C36.3726 14.6372 36.558 14.516 36.7739 14.4283C36.9899 14.3399 37.2246 14.2961 37.4781 14.2961ZM19.0016 16.0119C19.0016 15.4376 19.3779 14.9658 19.9928 14.9658C20.5804 14.9658 20.9771 15.4173 20.9771 16.0119C20.9771 16.6065 20.5804 17.0571 19.9928 17.0571C19.3779 17.0571 19.0016 16.5861 19.0016 16.0119ZM21.6468 16.0119V14.3783H20.9364V14.7749C20.7103 14.4808 20.3692 14.2961 19.9044 14.2961C18.9883 14.2961 18.2708 15.0136 18.2708 16.0119C18.2708 17.0094 18.9883 17.7276 19.9044 17.7276C20.3692 17.7276 20.7103 17.543 20.9364 17.2488V17.6455H21.6468V16.0119ZM17.6418 17.6455V15.5949C17.6418 14.8227 17.1497 14.3032 16.3572 14.2961C15.9401 14.2891 15.5091 14.419 15.2086 14.8774C14.9833 14.5152 14.6273 14.2961 14.1282 14.2961C13.78 14.2961 13.4381 14.3986 13.1713 14.7812V14.3783H12.4609V17.6455H13.1784V15.8343C13.1784 15.267 13.4929 14.9658 13.978 14.9658C14.4497 14.9658 14.6891 15.2733 14.6891 15.8272V17.6455H15.4066V15.8343C15.4066 15.267 15.7352 14.9658 16.2062 14.9658C16.692 14.9658 16.9244 15.2733 16.9244 15.8272V17.6455H17.6418Z" fill="white"/>
</svg>
