<svg width="51" height="33" viewBox="0 0 51 33" fill="none" xmlns="http://www.w3.org/2000/svg">
<g clip-path="url(#clip0_1168_347)">
<rect x="0.898682" y="0.661621" width="50" height="32" rx="3" fill="white"/>
<path d="M15.7726 21.5615H13.6999C13.558 21.5615 13.4374 21.6646 13.4153 21.8046L12.577 27.1195C12.5603 27.2244 12.6416 27.3189 12.7479 27.3189H13.7375C13.8793 27.3189 13.9999 27.2159 14.022 27.0756L14.2481 25.6421C14.27 25.5017 14.3909 25.3987 14.5324 25.3987H15.1886C16.5539 25.3987 17.3419 24.738 17.5476 23.4287C17.6404 22.8559 17.5516 22.4059 17.2834 22.0907C16.9888 21.7446 16.4663 21.5615 15.7726 21.5615ZM16.0117 23.5027C15.8983 24.2464 15.3301 24.2464 14.7806 24.2464H14.4679L14.6873 22.8574C14.7003 22.7735 14.773 22.7117 14.8579 22.7117H15.0013C15.3755 22.7117 15.7286 22.7117 15.9111 22.925C16.0199 23.0523 16.0532 23.2414 16.0117 23.5027Z" fill="#253B80"/>
<path d="M21.9683 23.4781H20.9758C20.8912 23.4781 20.8182 23.5399 20.8052 23.6239L20.7612 23.9015L20.6918 23.8009C20.4769 23.489 19.9978 23.3848 19.5195 23.3848C18.4227 23.3848 17.4859 24.2155 17.3035 25.3808C17.2086 25.9621 17.3435 26.5179 17.6732 26.9055C17.9757 27.2619 18.4085 27.4104 18.9234 27.4104C19.8072 27.4104 20.2972 26.8422 20.2972 26.8422L20.253 27.118C20.2363 27.2234 20.3175 27.318 20.4233 27.318H21.3173C21.4595 27.318 21.5795 27.215 21.6019 27.0746L22.1384 23.6775C22.1553 23.573 22.0744 23.4781 21.9683 23.4781ZM20.5848 25.4099C20.4891 25.9769 20.039 26.3576 19.465 26.3576C19.1768 26.3576 18.9464 26.2651 18.7985 26.09C18.6519 25.916 18.5961 25.6684 18.6428 25.3926C18.7322 24.8304 19.1898 24.4373 19.755 24.4373C20.0369 24.4373 20.266 24.531 20.4169 24.7077C20.5682 24.8862 20.6282 25.1353 20.5848 25.4099Z" fill="#253B80"/>
<path d="M27.2544 23.478H26.257C26.1619 23.478 26.0725 23.5253 26.0185 23.6044L24.6429 25.6307L24.0598 23.6835C24.0231 23.5617 23.9107 23.478 23.7834 23.478H22.8032C22.6841 23.478 22.6014 23.5944 22.6393 23.7065L23.7379 26.9306L22.7051 28.3887C22.6238 28.5035 22.7057 28.6614 22.846 28.6614H23.8422C23.9367 28.6614 24.0252 28.6154 24.0789 28.5378L27.3963 23.7493C27.4757 23.6347 27.3941 23.478 27.2544 23.478Z" fill="#253B80"/>
<path d="M30.5565 21.561H28.4835C28.342 21.561 28.2214 21.6641 28.1992 21.8041L27.3609 27.119C27.3443 27.2239 27.4255 27.3184 27.5313 27.3184H28.595C28.6938 27.3184 28.7784 27.2463 28.7939 27.1481L29.0318 25.6416C29.0536 25.5012 29.1745 25.3982 29.316 25.3982H29.9719C31.3375 25.3982 32.1252 24.7375 32.3313 23.4282C32.4243 22.8554 32.3349 22.4054 32.0667 22.0902C31.7724 21.7441 31.2502 21.561 30.5565 21.561ZM30.7956 23.5022C30.6826 24.2459 30.1143 24.2459 29.5646 24.2459H29.2521L29.4718 22.857C29.4849 22.773 29.557 22.7112 29.6421 22.7112H29.7855C30.1595 22.7112 30.5129 22.7112 30.6953 22.9245C30.8041 23.0518 30.8371 23.2409 30.7956 23.5022Z" fill="#179BD7"/>
<path d="M36.752 23.4781H35.76C35.6748 23.4781 35.6024 23.5399 35.5897 23.6239L35.5457 23.9015L35.476 23.8009C35.2612 23.489 34.7823 23.3848 34.3041 23.3848C33.2073 23.3848 32.2708 24.2155 32.0883 25.3808C31.9938 25.9621 32.128 26.5179 32.4578 26.9055C32.7608 27.2619 33.193 27.4104 33.7079 27.4104C34.5917 27.4104 35.0817 26.8422 35.0817 26.8422L35.0375 27.118C35.0208 27.2234 35.102 27.318 35.2084 27.318H36.1022C36.2437 27.318 36.3643 27.215 36.3865 27.0746L36.9232 23.6775C36.9396 23.573 36.8583 23.4781 36.752 23.4781ZM35.3684 25.4099C35.2733 25.9769 34.8226 26.3576 34.2486 26.3576C33.961 26.3576 33.7301 26.2651 33.5822 26.09C33.4355 25.916 33.3803 25.6684 33.4264 25.3926C33.5164 24.8304 33.9734 24.4373 34.5386 24.4373C34.8205 24.4373 35.0496 24.531 35.2005 24.7077C35.3524 24.8862 35.4124 25.1353 35.3684 25.4099Z" fill="#179BD7"/>
<path d="M37.9221 21.7066L37.0714 27.1188C37.0547 27.2237 37.1359 27.3183 37.2417 27.3183H38.097C38.2391 27.3183 38.3597 27.2152 38.3816 27.0749L39.2205 21.7603C39.2371 21.6554 39.1559 21.5605 39.0501 21.5605H38.0924C38.0079 21.5608 37.9351 21.6227 37.9221 21.7066Z" fill="#179BD7"/>
<path d="M23.9673 17.6794L24.2009 16.196L23.6807 16.184H21.1967L22.9229 5.23832C22.9283 5.20528 22.9457 5.17447 22.9711 5.15259C22.9966 5.13071 23.0292 5.11865 23.0631 5.11865H27.2515C28.642 5.11865 29.6016 5.408 30.1026 5.9791C30.3375 6.24702 30.487 6.52699 30.5594 6.83509C30.6353 7.15838 30.6366 7.54462 30.5625 8.0157L30.5571 8.05009V8.35194L30.792 8.485C30.9898 8.58993 31.147 8.71005 31.2676 8.84758C31.4685 9.07664 31.5984 9.36778 31.6534 9.71294C31.7101 10.0679 31.6913 10.4903 31.5984 10.9686C31.4913 11.5187 31.318 11.9978 31.084 12.3899C30.8688 12.7511 30.5947 13.0507 30.2691 13.2829C29.9584 13.5035 29.5891 13.6709 29.1716 13.7781C28.767 13.8835 28.3058 13.9366 27.7999 13.9366H27.4739C27.2408 13.9366 27.0144 14.0206 26.8367 14.171C26.6585 14.3246 26.5407 14.5345 26.5045 14.764L26.4799 14.8975L26.0673 17.5119L26.0486 17.6079C26.0437 17.6383 26.0352 17.6535 26.0227 17.6638C26.0115 17.6731 25.9955 17.6794 25.9798 17.6794H23.9673Z" fill="#253B80"/>
<path d="M31.0142 8.08496C31.0017 8.16489 30.9874 8.2466 30.9713 8.33055C30.419 11.1664 28.5293 12.1461 26.1158 12.1461H24.887C24.5919 12.1461 24.3431 12.3604 24.2971 12.6516L23.668 16.6417L23.4898 17.7728C23.4599 17.9639 23.6073 18.1362 23.8002 18.1362H25.9797C26.2377 18.1362 26.457 17.9487 26.4976 17.6942L26.5191 17.5834L26.9294 14.9793L26.9558 14.8364C26.9959 14.581 27.2156 14.3935 27.4737 14.3935H27.7997C29.9113 14.3935 31.5643 13.5361 32.0475 11.0552C32.2493 10.0189 32.1448 9.15349 31.6108 8.54488C31.4491 8.36136 31.2486 8.20909 31.0142 8.08496Z" fill="#179BD7"/>
<path d="M30.4365 7.85451C30.3521 7.82995 30.265 7.80762 30.1757 7.78753C30.086 7.76788 29.994 7.75047 29.8993 7.73528C29.568 7.6817 29.205 7.65625 28.8161 7.65625H25.5332C25.4524 7.65625 25.3756 7.67456 25.3068 7.7076C25.1555 7.78038 25.0429 7.92372 25.0157 8.0992L24.3173 12.5225L24.2972 12.6515C24.3432 12.3604 24.5919 12.1461 24.8871 12.1461H26.1159C28.5294 12.1461 30.4191 11.1659 30.9714 8.3305C30.988 8.24656 31.0018 8.16484 31.0143 8.08491C30.8745 8.01079 30.7232 7.94738 30.5602 7.89335C30.52 7.87996 30.4785 7.86701 30.4365 7.85451Z" fill="#222D65"/>
<path d="M25.0157 8.09941C25.0429 7.92393 25.1554 7.78059 25.3068 7.70826C25.376 7.67521 25.4524 7.65691 25.5332 7.65691H28.816C29.205 7.65691 29.568 7.68236 29.8993 7.73594C29.994 7.75112 30.0859 7.76854 30.1757 7.78818C30.265 7.80828 30.3521 7.8306 30.4365 7.85516C30.4784 7.86767 30.52 7.88062 30.5606 7.89356C30.7236 7.94759 30.875 8.01145 31.0147 8.08512C31.179 7.03713 31.0134 6.32358 30.4467 5.67746C29.822 4.96615 28.6946 4.66162 27.2519 4.66162H23.0635C22.7687 4.66162 22.5174 4.87595 22.4718 5.16753L20.7272 16.2257C20.6929 16.4445 20.8616 16.6419 21.0822 16.6419H23.668L24.3173 12.5227L25.0157 8.09941Z" fill="#253B80"/>
</g>
<defs>
<clipPath id="clip0_1168_347">
<rect width="50" height="32" fill="white" transform="translate(0.898682 0.661621)"/>
</clipPath>
</defs>
</svg>
